<?xml version="1.0" encoding="UTF-8" standalone="no"?>
<!DOCTYPE svg PUBLIC "-//W3C//DTD SVG 1.1//EN"
 "http://www.w3.org/Graphics/SVG/1.1/DTD/svg11.dtd">
<!-- Generated by graphviz version 2.46.1 (20210213.1702)
 -->
<!-- Pages: 1 -->
<svg width="974pt" height="260pt"
 viewBox="0.00 0.00 973.50 260.00" xmlns="http://www.w3.org/2000/svg" xmlns:xlink="http://www.w3.org/1999/xlink">
<g id="graph0" class="graph" transform="scale(1 1) rotate(0) translate(4 256)">
<polygon fill="white" stroke="transparent" points="-4,4 -4,-256 969.5,-256 969.5,4 -4,4"/>
<!-- [root] azurerm_network_security_group.nsg (expand) -->
<g id="node1" class="node">
<title>[root] azurerm_network_security_group.nsg (expand)</title>
<polygon fill="none" stroke="black" points="228,-108 0,-108 0,-72 228,-72 228,-108"/>
<text text-anchor="middle" x="114" y="-86.3" font-family="Times New Roman,serif" font-size="14.00">azurerm_network_security_group.nsg</text>
</g>
<!-- [root] provider[&quot;registry.terraform.io/hashicorp/azurerm&quot;] -->
<g id="node5" class="node">
<title>[root] provider[&quot;registry.terraform.io/hashicorp/azurerm&quot;]</title>
<polygon fill="none" stroke="black" points="389,-36 111.33,-18 389,0 666.67,-18 389,-36"/>
<text text-anchor="middle" x="389" y="-14.3" font-family="Times New Roman,serif" font-size="14.00">provider[&quot;registry.terraform.io/hashicorp/azurerm&quot;]</text>
</g>
<!-- [root] azurerm_network_security_group.nsg (expand)&#45;&gt;[root] provider[&quot;registry.terraform.io/hashicorp/azurerm&quot;] -->
<g id="edge1" class="edge">
<title>[root] azurerm_network_security_group.nsg (expand)&#45;&gt;[root] provider[&quot;registry.terraform.io/hashicorp/azurerm&quot;]</title>
<path fill="none" stroke="black" d="M180.92,-71.97C225.02,-60.74 282.41,-46.13 325.75,-35.1"/>
<polygon fill="black" stroke="black" points="326.78,-38.45 335.61,-32.59 325.05,-31.67 326.78,-38.45"/>
</g>
<!-- [root] azurerm_network_security_rule.regras_entrada_liberada (expand) -->
<g id="node2" class="node">
<title>[root] azurerm_network_security_rule.regras_entrada_liberada (expand)</title>
<polygon fill="none" stroke="black" points="965.5,-108 636.5,-108 636.5,-72 965.5,-72 965.5,-108"/>
<text text-anchor="middle" x="801" y="-86.3" font-family="Times New Roman,serif" font-size="14.00">azurerm_network_security_rule.regras_entrada_liberada</text>
</g>
<!-- [root] azurerm_network_security_rule.regras_entrada_liberada (expand)&#45;&gt;[root] provider[&quot;registry.terraform.io/hashicorp/azurerm&quot;] -->
<g id="edge2" class="edge">
<title>[root] azurerm_network_security_rule.regras_entrada_liberada (expand)&#45;&gt;[root] provider[&quot;registry.terraform.io/hashicorp/azurerm&quot;]</title>
<path fill="none" stroke="black" d="M700.74,-71.97C630.39,-60.01 537.48,-44.23 471.43,-33.01"/>
<polygon fill="black" stroke="black" points="471.93,-29.54 461.48,-31.31 470.75,-36.44 471.93,-29.54"/>
</g>
<!-- [root] var.regras_entrada -->
<g id="node6" class="node">
<title>[root] var.regras_entrada</title>
<polygon fill="none" stroke="black" points="854.5,-36 741.5,-36 741.5,0 860.5,0 860.5,-30 854.5,-36"/>
<polyline fill="none" stroke="black" points="854.5,-36 854.5,-30 "/>
<polyline fill="none" stroke="black" points="860.5,-30 854.5,-30 "/>
<text text-anchor="middle" x="801" y="-14.3" font-family="Times New Roman,serif" font-size="14.00">var.regras_entrada</text>
</g>
<!-- [root] azurerm_network_security_rule.regras_entrada_liberada (expand)&#45;&gt;[root] var.regras_entrada -->
<g id="edge3" class="edge">
<title>[root] azurerm_network_security_rule.regras_entrada_liberada (expand)&#45;&gt;[root] var.regras_entrada</title>
<path fill="none" stroke="black" d="M801,-71.7C801,-63.98 801,-54.71 801,-46.11"/>
<polygon fill="black" stroke="black" points="804.5,-46.1 801,-36.1 797.5,-46.1 804.5,-46.1"/>
</g>
<!-- [root] azurerm_resource_group.rg (expand) -->
<g id="node3" class="node">
<title>[root] azurerm_resource_group.rg (expand)</title>
<polygon fill="none" stroke="black" points="418,-108 246,-108 246,-72 418,-72 418,-108"/>
<text text-anchor="middle" x="332" y="-86.3" font-family="Times New Roman,serif" font-size="14.00">azurerm_resource_group.rg</text>
</g>
<!-- [root] azurerm_resource_group.rg (expand)&#45;&gt;[root] provider[&quot;registry.terraform.io/hashicorp/azurerm&quot;] -->
<g id="edge4" class="edge">
<title>[root] azurerm_resource_group.rg (expand)&#45;&gt;[root] provider[&quot;registry.terraform.io/hashicorp/azurerm&quot;]</title>
<path fill="none" stroke="black" d="M346.09,-71.7C353.03,-63.18 361.51,-52.76 369.09,-43.45"/>
<polygon fill="black" stroke="black" points="371.86,-45.59 375.46,-35.62 366.44,-41.17 371.86,-45.59"/>
</g>
<!-- [root] azurerm_virtual_network.vnet (expand) -->
<g id="node4" class="node">
<title>[root] azurerm_virtual_network.vnet (expand)</title>
<polygon fill="none" stroke="black" points="618,-108 436,-108 436,-72 618,-72 618,-108"/>
<text text-anchor="middle" x="527" y="-86.3" font-family="Times New Roman,serif" font-size="14.00">azurerm_virtual_network.vnet</text>
</g>
<!-- [root] azurerm_virtual_network.vnet (expand)&#45;&gt;[root] provider[&quot;registry.terraform.io/hashicorp/azurerm&quot;] -->
<g id="edge5" class="edge">
<title>[root] azurerm_virtual_network.vnet (expand)&#45;&gt;[root] provider[&quot;registry.terraform.io/hashicorp/azurerm&quot;]</title>
<path fill="none" stroke="black" d="M493.24,-71.88C473.59,-61.91 448.72,-49.29 428.21,-38.89"/>
<polygon fill="black" stroke="black" points="429.62,-35.68 419.12,-34.28 426.46,-41.92 429.62,-35.68"/>
</g>
<!-- [root] meta.count&#45;boundary (EachMode fixup) -->
<g id="node7" class="node">
<title>[root] meta.count&#45;boundary (EachMode fixup)</title>
<ellipse fill="none" stroke="black" cx="223" cy="-162" rx="180.87" ry="18"/>
<text text-anchor="middle" x="223" y="-158.3" font-family="Times New Roman,serif" font-size="14.00">[root] meta.count&#45;boundary (EachMode fixup)</text>
</g>
<!-- [root] meta.count&#45;boundary (EachMode fixup)&#45;&gt;[root] azurerm_network_security_group.nsg (expand) -->
<g id="edge6" class="edge">
<title>[root] meta.count&#45;boundary (EachMode fixup)&#45;&gt;[root] azurerm_network_security_group.nsg (expand)</title>
<path fill="none" stroke="black" d="M196.61,-144.05C182.39,-134.92 164.66,-123.53 149.27,-113.65"/>
<polygon fill="black" stroke="black" points="150.83,-110.49 140.52,-108.03 147.04,-116.38 150.83,-110.49"/>
</g>
<!-- [root] meta.count&#45;boundary (EachMode fixup)&#45;&gt;[root] azurerm_network_security_rule.regras_entrada_liberada (expand) -->
<g id="edge7" class="edge">
<title>[root] meta.count&#45;boundary (EachMode fixup)&#45;&gt;[root] azurerm_network_security_rule.regras_entrada_liberada (expand)</title>
<path fill="none" stroke="black" d="M333.08,-147.67C423.01,-136.78 551.06,-121.27 650.47,-109.23"/>
<polygon fill="black" stroke="black" points="651.1,-112.68 660.61,-108 650.26,-105.73 651.1,-112.68"/>
</g>
<!-- [root] meta.count&#45;boundary (EachMode fixup)&#45;&gt;[root] azurerm_resource_group.rg (expand) -->
<g id="edge8" class="edge">
<title>[root] meta.count&#45;boundary (EachMode fixup)&#45;&gt;[root] azurerm_resource_group.rg (expand)</title>
<path fill="none" stroke="black" d="M249.39,-144.05C263.61,-134.92 281.34,-123.53 296.73,-113.65"/>
<polygon fill="black" stroke="black" points="298.96,-116.38 305.48,-108.03 295.17,-110.49 298.96,-116.38"/>
</g>
<!-- [root] meta.count&#45;boundary (EachMode fixup)&#45;&gt;[root] azurerm_virtual_network.vnet (expand) -->
<g id="edge9" class="edge">
<title>[root] meta.count&#45;boundary (EachMode fixup)&#45;&gt;[root] azurerm_virtual_network.vnet (expand)</title>
<path fill="none" stroke="black" d="M291.22,-145.29C336.17,-134.94 395.32,-121.32 443.14,-110.31"/>
<polygon fill="black" stroke="black" points="444.2,-113.66 453.16,-108 442.63,-106.84 444.2,-113.66"/>
</g>
<!-- [root] provider[&quot;registry.terraform.io/hashicorp/azurerm&quot;] (close) -->
<g id="node8" class="node">
<title>[root] provider[&quot;registry.terraform.io/hashicorp/azurerm&quot;] (close)</title>
<ellipse fill="none" stroke="black" cx="669" cy="-162" rx="246.96" ry="18"/>
<text text-anchor="middle" x="669" y="-158.3" font-family="Times New Roman,serif" font-size="14.00">[root] provider[&quot;registry.terraform.io/hashicorp/azurerm&quot;] (close)</text>
</g>
<!-- [root] provider[&quot;registry.terraform.io/hashicorp/azurerm&quot;] (close)&#45;&gt;[root] azurerm_network_security_group.nsg (expand) -->
<g id="edge10" class="edge">
<title>[root] provider[&quot;registry.terraform.io/hashicorp/azurerm&quot;] (close)&#45;&gt;[root] azurerm_network_security_group.nsg (expand)</title>
<path fill="none" stroke="black" d="M545.57,-146.36C461.67,-136.29 347.86,-122.4 238.16,-108.14"/>
<polygon fill="black" stroke="black" points="238.61,-104.67 228.24,-106.85 237.71,-111.61 238.61,-104.67"/>
</g>
<!-- [root] provider[&quot;registry.terraform.io/hashicorp/azurerm&quot;] (close)&#45;&gt;[root] azurerm_network_security_rule.regras_entrada_liberada (expand) -->
<g id="edge11" class="edge">
<title>[root] provider[&quot;registry.terraform.io/hashicorp/azurerm&quot;] (close)&#45;&gt;[root] azurerm_network_security_rule.regras_entrada_liberada (expand)</title>
<path fill="none" stroke="black" d="M700.95,-144.05C718.66,-134.67 740.86,-122.89 759.85,-112.82"/>
<polygon fill="black" stroke="black" points="761.69,-115.81 768.88,-108.03 758.41,-109.62 761.69,-115.81"/>
</g>
<!-- [root] provider[&quot;registry.terraform.io/hashicorp/azurerm&quot;] (close)&#45;&gt;[root] azurerm_resource_group.rg (expand) -->
<g id="edge12" class="edge">
<title>[root] provider[&quot;registry.terraform.io/hashicorp/azurerm&quot;] (close)&#45;&gt;[root] azurerm_resource_group.rg (expand)</title>
<path fill="none" stroke="black" d="M591.26,-144.85C541.41,-134.5 476.45,-121 424.02,-110.11"/>
<polygon fill="black" stroke="black" points="424.55,-106.65 414.05,-108.04 423.13,-113.5 424.55,-106.65"/>
</g>
<!-- [root] provider[&quot;registry.terraform.io/hashicorp/azurerm&quot;] (close)&#45;&gt;[root] azurerm_virtual_network.vnet (expand) -->
<g id="edge13" class="edge">
<title>[root] provider[&quot;registry.terraform.io/hashicorp/azurerm&quot;] (close)&#45;&gt;[root] azurerm_virtual_network.vnet (expand)</title>
<path fill="none" stroke="black" d="M634.63,-144.05C615.41,-134.58 591.26,-122.68 570.71,-112.55"/>
<polygon fill="black" stroke="black" points="572.07,-109.31 561.55,-108.03 568.97,-115.59 572.07,-109.31"/>
</g>
<!-- [root] root -->
<g id="node9" class="node">
<title>[root] root</title>
<ellipse fill="none" stroke="black" cx="446" cy="-234" rx="49.29" ry="18"/>
<text text-anchor="middle" x="446" y="-230.3" font-family="Times New Roman,serif" font-size="14.00">[root] root</text>
</g>
<!-- [root] root&#45;&gt;[root] meta.count&#45;boundary (EachMode fixup) -->
<g id="edge14" class="edge">
<title>[root] root&#45;&gt;[root] meta.count&#45;boundary (EachMode fixup)</title>
<path fill="none" stroke="black" d="M409.67,-221.6C375.93,-211 324.98,-195.01 284.83,-182.41"/>
<polygon fill="black" stroke="black" points="285.72,-179.02 275.13,-179.36 283.63,-185.7 285.72,-179.02"/>
</g>
<!-- [root] root&#45;&gt;[root] provider[&quot;registry.terraform.io/hashicorp/azurerm&quot;] (close) -->
<g id="edge15" class="edge">
<title>[root] root&#45;&gt;[root] provider[&quot;registry.terraform.io/hashicorp/azurerm&quot;] (close)</title>
<path fill="none" stroke="black" d="M482.33,-221.6C515.85,-211.08 566.33,-195.23 606.36,-182.66"/>
<polygon fill="black" stroke="black" points="607.53,-185.96 616.03,-179.63 605.44,-179.28 607.53,-185.96"/>
</g>
</g>
</svg>
